<svg xmlns="http://www.w3.org/2000/svg" width="260" height="330" viewBox="0 0 260 330">
<rect width="260" height="330" rx="24" fill="#fffaf0"/>
<rect x="12" y="12" width="236" height="306" rx="20" fill="#ffffff" stroke="#dbe2ea"/>
<line x1="35" y1="252" x2="225" y2="252" stroke="#94a3b8" stroke-width="2"/>
<text x="130" y="28" font-family="Arial,sans-serif" font-size="19" font-weight="700" text-anchor="middle" fill="#172554">Apkubi</text>
<text x="130" y="47" font-family="Arial,sans-serif" font-size="12" text-anchor="middle" fill="#475569">Position avant longue</text>
<!-- head/hair -->
<circle cx="105" cy="83" r="24" fill="#8b5a2b"/>
<path d="M83 78 Q105 49 127 78" stroke="#111827" stroke-width="10" fill="none" stroke-linecap="round"/>
<!-- dobok torso -->
<path d="M77 105 L133 105 L128 152 L82 152 Z" fill="#ffffff" stroke="#1f2937" stroke-width="2"/>
<path d="M83 107 L110 135 M127 107 L100 135" stroke="#cbd5e1" stroke-width="3"/>
<rect x="80" y="143" width="50" height="8" rx="3" fill="#6d28d9"/>
<!-- arms guard -->
<line x1="81" y1="115" x2="57" y2="138" stroke="#1f2937" stroke-width="10" stroke-linecap="round"/>
<line x1="57" y1="138" x2="80" y2="145" stroke="#1f2937" stroke-width="10" stroke-linecap="round"/>
<line x1="129" y1="115" x2="153" y2="138" stroke="#1f2937" stroke-width="10" stroke-linecap="round"/>
<line x1="153" y1="138" x2="130" y2="145" stroke="#1f2937" stroke-width="10" stroke-linecap="round"/>
<!-- legs -->
<line x1="95" y1="152" x2="78" y2="190" stroke="#ffffff" stroke-width="18" stroke-linecap="round"/>
<line x1="78" y1="190" x2="62" y2="228" stroke="#ffffff" stroke-width="18" stroke-linecap="round"/>
<line x1="115" y1="152" x2="145" y2="178" stroke="#ffffff" stroke-width="18" stroke-linecap="round"/>
<line x1="145" y1="178" x2="164" y2="195" stroke="#ffffff" stroke-width="18" stroke-linecap="round"/>
<line x1="95" y1="152" x2="78" y2="190" stroke="#1f2937" stroke-width="2"/>
<line x1="78" y1="190" x2="62" y2="228" stroke="#1f2937" stroke-width="2"/>
<line x1="115" y1="152" x2="145" y2="178" stroke="#1f2937" stroke-width="2"/>
<line x1="145" y1="178" x2="164" y2="195" stroke="#1f2937" stroke-width="2"/>
<g transform="translate(62,238) rotate(0)"><rect x="-9" y="-20" width="18" height="40" rx="8" fill="#f2c6a0" stroke="#1f2937" stroke-width="2"/><circle cx="0" cy="-16" r="3" fill="#1f2937"/></g><g transform="translate(164,205) rotate(-30)"><rect x="-9" y="-20" width="18" height="40" rx="8" fill="#f2c6a0" stroke="#1f2937" stroke-width="2"/><circle cx="0" cy="-16" r="3" fill="#1f2937"/></g>
<!-- weight -->
<rect x="48" y="264" width="164" height="24" rx="12" fill="#eff6ff"/>
<text x="130" y="281" font-family="Arial,sans-serif" font-size="12" font-weight="700" text-anchor="middle" fill="#1d4ed8">Répartition : 70 / 30</text>
<text x="130" y="303" font-family="Arial,sans-serif" font-size="10.5" text-anchor="middle" fill="#475569">Jambe avant fléchie, jambe arrière tendue, base longue.</text>
</svg>