<svg xmlns="http://www.w3.org/2000/svg" width="260" height="340" viewBox="0 0 260 340">
<rect width="260" height="340" rx="22" fill="#f8e9c9"/>
<text x="130" y="27" text-anchor="middle" font-family="Arial" font-size="18" font-weight="700" fill="#172554">Ap-seogi</text>
<text x="130" y="45" text-anchor="middle" font-family="Arial" font-size="11" fill="#475569">Position avant courte</text>
<ellipse cx="130" cy="316" rx="105" ry="8" fill="#dccba6"/>
<!-- head -->
<circle cx="130" cy="84" r="27" fill="#8a552e"/>
<path d="M105 80 Q130 45 155 80 Q150 58 130 55 Q110 58 105 80" fill="#171717"/>
<ellipse cx="120" cy="84" rx="3" ry="4" fill="#111"/><ellipse cx="140" cy="84" rx="3" ry="4" fill="#111"/>
<path d="M122 99 Q130 104 138 99" fill="none" stroke="#4b2e20" stroke-width="2"/>
<!-- neck -->
<rect x="122" y="106" width="16" height="15" rx="5" fill="#8a552e"/>
<!-- dobok jacket full -->
<path d="M92 120 Q130 108 168 120 L176 176 Q160 194 130 192 Q100 194 84 176 Z" fill="#fff" stroke="#4b5563" stroke-width="2"/>
<path d="M100 121 L137 164 L158 121 M160 122 L123 164" fill="none" stroke="#cbd5e1" stroke-width="3"/>
<!-- sleeves + forearms in guard -->
<path d="M94 126 Q70 132 64 154 L78 164 Q88 149 104 144 Z" fill="#fff" stroke="#4b5563" stroke-width="2"/>
<path d="M166 126 Q190 132 196 154 L182 164 Q172 149 156 144 Z" fill="#fff" stroke="#4b5563" stroke-width="2"/>
<path d="M76 158 Q91 165 105 171" stroke="#8a552e" stroke-width="12" stroke-linecap="round"/>
<path d="M184 158 Q169 165 155 171" stroke="#8a552e" stroke-width="12" stroke-linecap="round"/>
<circle cx="106" cy="171" r="8" fill="#8a552e"/><circle cx="154" cy="171" r="8" fill="#8a552e"/>
<!-- purple belt -->
<rect x="91" y="174" width="78" height="11" rx="4" fill="#6d28d9"/>
<path d="M127 180 L112 213" stroke="#6d28d9" stroke-width="9"/><path d="M135 180 L148 212" stroke="#6d28d9" stroke-width="9"/>
<!-- trousers as filled polygons -->
<path d="M103 190 L128 190 L94 214 L69 280 L48 278 L72 211 Z" fill="#fff" stroke="#4b5563" stroke-width="2"/>
<path d="M132 190 L157 190 L156 205 L181 250 L160 248 L135 202 Z" fill="#fff" stroke="#4b5563" stroke-width="2"/>
<!-- feet -->
<path d="M44 284 Q58 277 78 288 Q66 296 44 292 Z" fill="#8a552e"/>
<path d="M156 254 Q170 247 190 258 Q178 266 156 262 Z" fill="#8a552e"/>
</svg>